<?xml version="1.0" standalone="no"?>
<!DOCTYPE svg PUBLIC "-//W3C//DTD SVG 20010904//EN"
 "http://www.w3.org/TR/2001/REC-SVG-20010904/DTD/svg10.dtd">
<svg version="1.0" xmlns="http://www.w3.org/2000/svg"
 width="128.000000pt" height="128.000000pt" viewBox="0 0 128.000000 128.000000"
 preserveAspectRatio="xMidYMid meet">

<g transform="translate(0.000000,128.000000) scale(0.100000,-0.100000)"
fill="#000000" stroke="none">
<path d="M10 635 l0 -625 630 0 630 0 0 625 0 625 -630 0 -630 0 0 -625z m705
335 c0 -8 -14 -24 -32 -35 -21 -13 -30 -25 -26 -35 3 -8 8 -38 10 -66 6 -58
-8 -93 -56 -138 -17 -17 -31 -37 -31 -46 0 -9 18 -31 41 -49 57 -47 79 -86 79
-146 0 -37 -7 -60 -25 -87 -71 -104 -291 -117 -393 -23 -32 29 -37 40 -37 78
0 33 7 53 29 81 31 41 113 86 159 86 23 0 27 4 27 29 0 25 -4 29 -40 35 -80
13 -137 93 -128 181 7 56 41 100 102 130 48 24 59 25 186 23 111 -3 135 -6
135 -18z m183 -197 l3 -63 57 0 c70 0 85 -9 80 -46 -3 -28 -4 -29 -70 -32
l-68 -3 0 -64 0 -65 -35 0 -35 0 0 65 0 64 -67 3 c-62 3 -68 5 -71 26 -6 39
15 52 79 52 l59 0 0 58 c0 67 4 74 40 70 23 -3 25 -7 28 -65z"/>
<path d="M428 903 c-39 -44 -33 -105 14 -159 41 -47 81 -46 107 3 16 31 14 61
-9 108 -29 59 -82 82 -112 48z"/>
<path d="M413 513 c-95 -48 -48 -158 67 -156 66 1 106 18 120 53 16 39 5 66
-38 95 -43 29 -100 32 -149 8z"/>
</g>
</svg>
