<?xml version="1.0" standalone="no"?>
<!DOCTYPE svg PUBLIC "-//W3C//DTD SVG 20010904//EN"
 "http://www.w3.org/TR/2001/REC-SVG-20010904/DTD/svg10.dtd">
<svg version="1.0" xmlns="http://www.w3.org/2000/svg"
 width="128.000000pt" height="128.000000pt" viewBox="0 0 128.000000 128.000000"
 preserveAspectRatio="xMidYMid meet">

<g transform="translate(0.000000,128.000000) scale(0.100000,-0.100000)"
fill="#000000" stroke="none">
<path d="M10 635 l0 -625 630 0 630 0 0 625 0 625 -630 0 -630 0 0 -625z m956
369 c15 -11 37 -33 48 -48 20 -26 21 -40 21 -321 0 -281 -1 -295 -21 -321 -11
-15 -33 -37 -48 -48 -26 -20 -40 -21 -326 -21 -286 0 -300 1 -326 21 -15 11
-37 33 -48 48 -20 26 -21 43 -24 294 -2 147 0 281 3 299 7 40 49 91 90 109 23
11 94 13 317 11 272 -2 288 -3 314 -23z"/>
<path d="M810 870 l0 -60 65 0 65 0 0 60 0 60 -65 0 -65 0 0 -60z"/>
<path d="M583 751 c-104 -48 -97 -195 11 -236 44 -17 48 -17 92 0 76 29 107
112 68 186 -15 29 -80 69 -114 69 -8 0 -34 -9 -57 -19z"/>
<path d="M330 542 c0 -135 3 -172 16 -190 15 -22 17 -22 294 -22 277 0 279 0
294 22 13 18 16 55 16 190 l0 168 -50 0 -49 0 6 -47 c15 -134 -81 -243 -217
-243 -136 0 -232 109 -217 243 l6 47 -49 0 -50 0 0 -168z"/>
</g>
</svg>
