<?xml version="1.0" standalone="no"?>
<!DOCTYPE svg PUBLIC "-//W3C//DTD SVG 20010904//EN"
 "http://www.w3.org/TR/2001/REC-SVG-20010904/DTD/svg10.dtd">
<svg version="1.0" xmlns="http://www.w3.org/2000/svg"
 width="128.000000pt" height="128.000000pt" viewBox="0 0 128.000000 128.000000"
 preserveAspectRatio="xMidYMid meet">

<g transform="translate(0.000000,128.000000) scale(0.100000,-0.100000)"
fill="#000000" stroke="none">
<path d="M10 635 l0 -625 630 0 630 0 0 625 0 625 -630 0 -630 0 0 -625z m613
383 c13 -11 17 -40 23 -153 11 -242 -12 -253 -151 -68 -52 69 -95 132 -95 139
0 17 11 24 105 61 92 37 96 37 118 21z m261 -225 c77 -84 89 -109 64 -131 -20
-16 -195 -64 -220 -60 -13 2 -24 10 -26 20 -4 21 116 208 134 208 7 0 29 -17
48 -37z m-404 -153 c86 -43 100 -54 100 -75 0 -20 -7 -26 -37 -34 -87 -23
-176 -41 -200 -41 l-26 0 6 90 c3 49 8 94 12 100 12 19 46 10 145 -40z m370
-136 c83 -26 110 -39 110 -52 0 -24 -81 -140 -103 -148 -26 -8 -41 8 -102 109
-42 71 -52 94 -44 109 5 10 14 18 20 18 5 0 59 -16 119 -36z m-210 -19 c16
-19 3 -235 -15 -241 -19 -8 -158 36 -172 54 -17 21 -2 45 80 131 69 73 86 82
107 56z"/>
</g>
</svg>
