<?xml version="1.0" standalone="no"?>
<!DOCTYPE svg PUBLIC "-//W3C//DTD SVG 20010904//EN"
 "http://www.w3.org/TR/2001/REC-SVG-20010904/DTD/svg10.dtd">
<svg version="1.0" xmlns="http://www.w3.org/2000/svg"
 width="128.000000pt" height="128.000000pt" viewBox="0 0 128.000000 128.000000"
 preserveAspectRatio="xMidYMid meet">

<g transform="translate(0.000000,128.000000) scale(0.100000,-0.100000)"
fill="#000000" stroke="none">
<path d="M11 1003 c0 -242 1 -255 15 -205 57 212 223 380 439 443 l60 18 -257
0 -258 1 1 -257z"/>
<path d="M815 1241 c216 -63 382 -231 439 -443 14 -50 15 -37 15 205 l1 257
-257 -1 -258 0 60 -18z"/>
<path d="M11 268 l-1 -258 258 1 257 0 -60 18 c-216 63 -382 231 -439 443 -14
50 -15 37 -15 -204z"/>
<path d="M1260 500 c0 -33 -47 -146 -86 -207 -77 -121 -215 -223 -359 -264
l-60 -18 258 0 257 -1 0 255 c0 140 -2 255 -5 255 -3 0 -5 -9 -5 -20z"/>
</g>
</svg>
