<?xml version="1.0" standalone="no"?>
<!DOCTYPE svg PUBLIC "-//W3C//DTD SVG 20010904//EN"
 "http://www.w3.org/TR/2001/REC-SVG-20010904/DTD/svg10.dtd">
<svg version="1.0" xmlns="http://www.w3.org/2000/svg"
 width="128.000000pt" height="128.000000pt" viewBox="0 0 128.000000 128.000000"
 preserveAspectRatio="xMidYMid meet">

<g transform="translate(0.000000,128.000000) scale(0.100000,-0.100000)"
fill="#000000" stroke="none">
<path d="M10 635 l0 -625 630 0 630 0 0 625 0 625 -630 0 -630 0 0 -625z m452
340 c7 -25 15 -45 19 -45 3 0 10 19 15 43 8 38 12 42 42 45 17 2 32 2 32 0 0
-3 -13 -44 -30 -93 -20 -58 -30 -109 -30 -147 0 -58 0 -58 -30 -58 -30 0 -30
0 -30 58 0 38 -10 89 -30 147 -16 49 -30 90 -30 92 0 2 14 3 30 3 27 0 31 -4
42 -45z m220 -42 c15 -13 18 -32 18 -104 0 -79 -2 -89 -22 -103 -33 -23 -65
-20 -94 10 -24 24 -26 30 -22 105 3 66 7 83 23 95 26 19 74 18 97 -3z m100
-78 c4 -113 22 -115 26 -2 l3 87 29 0 30 0 0 -110 0 -111 -38 2 c-21 2 -43 -1
-50 -5 -6 -4 -21 -2 -32 4 -18 10 -20 21 -20 115 0 105 0 105 25 105 24 0 24
-2 27 -85z m174 -216 c62 -29 84 -80 84 -190 0 -98 -17 -142 -69 -176 -33 -23
-39 -23 -331 -23 -292 0 -298 0 -331 23 -52 34 -69 78 -69 176 0 109 22 160
83 190 39 20 59 21 316 21 257 0 277 -1 317 -21z"/>
<path d="M620 830 c0 -56 3 -70 15 -70 12 0 15 14 15 70 0 56 -3 70 -15 70
-12 0 -15 -14 -15 -70z"/>
<path d="M360 585 c0 -9 9 -15 25 -15 l25 0 0 -115 c0 -96 3 -115 15 -115 12
0 15 19 15 115 l0 115 25 0 c16 0 25 6 25 15 0 12 -14 15 -65 15 -51 0 -65 -3
-65 -15z"/>
<path d="M660 471 l0 -128 43 0 c60 -1 67 9 67 86 0 84 -15 111 -54 93 -26
-12 -26 -11 -26 33 0 33 -4 45 -15 45 -13 0 -15 -21 -15 -129z m70 -37 c0 -66
-2 -75 -17 -72 -14 3 -19 15 -21 62 -4 68 1 86 23 86 12 0 15 -14 15 -76z"/>
<path d="M520 435 c0 -101 5 -109 51 -85 13 7 19 7 19 0 0 -5 7 -10 15 -10 12
0 15 17 15 95 0 78 -3 95 -15 95 -12 0 -15 -15 -15 -79 0 -75 -6 -91 -36 -91
-2 0 -4 38 -4 85 0 69 -3 85 -15 85 -12 0 -15 -17 -15 -95z"/>
<path d="M812 518 c-7 -7 -12 -42 -12 -85 0 -65 2 -74 24 -88 33 -22 76 -5 76
30 0 16 -6 25 -15 25 -8 0 -15 -9 -15 -20 0 -13 -7 -20 -20 -20 -16 0 -20 7
-20 35 0 33 2 35 35 35 34 0 35 1 35 38 0 45 -14 62 -50 62 -14 0 -31 -5 -38
-12z m56 -41 c3 -22 -1 -27 -17 -27 -15 0 -21 6 -21 23 0 46 33 49 38 4z"/>
</g>
</svg>
